<?xml version="1.0" encoding="utf-8"?>
<!-- Generator: Adobe Illustrator 25.2.3, SVG Export Plug-In . SVG Version: 6.00 Build 0)  -->
<svg version="1.1" xmlns="http://www.w3.org/2000/svg" xmlns:xlink="http://www.w3.org/1999/xlink" x="0px" y="0px"
	 viewBox="0 0 128 128" style="enable-background:new 0 0 128 128;" xml:space="preserve">
<style type="text/css">
	.st0{display:none;}
	.st1{display:inline;}
	.st2{fill:#EE3124;}
	.st3{display:none;fill:#010101;}
	.st4{display:none;fill:#3C51A3;}
	.st5{fill:#12B8EC;}
	.st6{fill:#FFFFFF;}
	.st7{fill:#FEBF3E;}
	.st8{fill:#232323;}
	.st9{display:inline;fill:#232323;}
	.st10{display:inline;fill:#FFFFFF;}
	.st11{fill:none;stroke:#232323;stroke-width:2;stroke-miterlimit:10;}
</style>
<g id="YouTube" class="st0">
	<g class="st1">
		<path class="st2" d="M123.8,33.6c-1.4-5.4-5.7-9.7-11-11.1c-9.7-2.6-48.7-2.6-48.7-2.6s-39,0-48.7,2.6C10,24,5.8,28.2,4.3,33.6
			c-2.6,9.8-2.6,30.2-2.6,30.2s0,20.4,2.6,30.2c1.4,5.4,5.7,9.7,11,11.1c9.7,2.6,48.7,2.6,48.7,2.6s39,0,48.7-2.6
			c5.4-1.4,9.6-5.7,11-11.1c2.6-9.8,2.6-30.2,2.6-30.2S126.4,43.4,123.8,33.6z"/>
	</g>
</g>
<g id="Layer_2" class="st0">
	<g class="st1">
		<g>
			<path class="st3" d="M-14.4-14.4v156.8h156.8V-14.4H-14.4z M81.4,27.2h32.3v8H81.4V27.2z M63.9,92.7c-1.5,2.5-3.4,4.6-5.7,6.3
				c-2.6,2-5.6,3.3-9,4c-3.5,0.7-7.3,1.1-11.3,1.1H1.8V23.9h38.7c9.8,0.1,16.7,3,20.8,8.5c2.5,3.4,3.7,7.5,3.7,12.2
				c0,4.9-1.2,8.8-3.7,11.8c-1.4,1.7-3.4,3.2-6.1,4.6c4.1,1.5,7.2,3.8,9.2,7.1c2.1,3.2,3.1,7.1,3.1,11.7
				C67.5,84.6,66.3,88.9,63.9,92.7z M126.2,77.1H84.4c0.2,5.8,2.2,9.8,6,12.1c2.3,1.4,5,2.2,8.3,2.2c3.4,0,6.2-0.9,8.3-2.6
				c1.2-0.9,2.2-2.3,3.1-3.9h15.3c-0.4,3.4-2.2,6.9-5.6,10.4c-5.1,5.6-12.3,8.4-21.6,8.4c-7.6,0-14.4-2.4-20.2-7.1
				c-5.8-4.7-8.8-12.4-8.8-23c0-10,2.6-17.6,7.9-22.9c5.3-5.3,12.1-8,20.5-8c5,0,9.5,0.9,13.5,2.7c4,1.8,7.3,4.6,9.9,8.5
				c2.4,3.4,3.9,7.4,4.6,11.9C126.1,68.3,126.3,72.1,126.2,77.1z"/>
			<path class="st4" d="M81.4,27.2h32.3v8H81.4V27.2z M63.9,92.7c-1.5,2.5-3.4,4.6-5.7,6.3c-2.6,2-5.6,3.3-9,4
				c-3.5,0.7-7.3,1.1-11.3,1.1H1.8V23.9h38.7c9.8,0.1,16.7,3,20.8,8.5c2.5,3.4,3.7,7.5,3.7,12.2c0,4.9-1.2,8.8-3.7,11.8
				c-1.4,1.7-3.4,3.2-6.1,4.6c4.1,1.5,7.2,3.8,9.2,7.1c2.1,3.2,3.1,7.1,3.1,11.7C67.5,84.6,66.3,88.9,63.9,92.7z M126.2,77.1H84.4
				c0.2,5.8,2.2,9.8,6,12.1c2.3,1.4,5,2.2,8.3,2.2c3.4,0,6.2-0.9,8.3-2.6c1.2-0.9,2.2-2.3,3.1-3.9h15.3c-0.4,3.4-2.2,6.9-5.6,10.4
				c-5.1,5.6-12.3,8.4-21.6,8.4c-7.6,0-14.4-2.4-20.2-7.1c-5.8-4.7-8.8-12.4-8.8-23c0-10,2.6-17.6,7.9-22.9c5.3-5.3,12.1-8,20.5-8
				c5,0,9.5,0.9,13.5,2.7c4,1.8,7.3,4.6,9.9,8.5c2.4,3.4,3.9,7.4,4.6,11.9C126.1,68.3,126.3,72.1,126.2,77.1z"/>
		</g>
	</g>
</g>
<g id="Layer_3" class="st0">
	<g class="st1">
		<g>
			<g>
				<path class="st5" d="M43.4,107.7c-11.5,0-20.9-9.4-20.9-20.9c0-11.5,9.4-20.9,20.9-20.9c2.3,0,4.5,0.4,6.6,1.1l-2.5,7.6
					c-1.3-0.4-2.7-0.7-4.1-0.7c-7.1,0-12.9,5.8-12.9,12.9c0,7.1,5.8,12.9,12.9,12.9s12.9-5.8,12.9-12.9l0.1-66.6l8,0l-0.1,66.6
					C64.3,98.3,54.9,107.7,43.4,107.7z"/>
			</g>
			<g>
				<path class="st6" d="M43.4,104.3c-9.6,0-17.5-7.8-17.5-17.5s7.8-17.5,17.5-17.5c1.9,0,3.7,0.3,5.5,0.9c0.3,0.1,0.5,0.4,0.4,0.8
					c-0.1,0.3-0.4,0.5-0.8,0.4c-1.7-0.6-3.4-0.8-5.1-0.8c-9,0-16.3,7.3-16.3,16.3c0,9,7.3,16.3,16.3,16.3s16.3-7.3,16.3-16.3
					l0.1-66.6c0-0.3,0.3-0.6,0.6-0.6c0,0,0,0,0,0c0.3,0,0.6,0.3,0.6,0.6l-0.1,66.6C60.9,96.5,53,104.3,43.4,104.3z"/>
			</g>
			<g>
				<path class="st5" d="M58.7,22.7l3.2,0l-0.1,64.2c0,10.2-8.3,18.5-18.5,18.5c-10.2,0-18.5-8.3-18.5-18.5
					c0-10.2,8.3-18.5,18.5-18.5c1.2,0,2.4,0.1,3.5,0.3l-1,3.1c-0.8-0.1-1.7-0.2-2.5-0.2c-8.4,0-15.3,6.9-15.3,15.3
					c0,8.4,6.9,15.3,15.3,15.3c8.4,0,15.3-6.9,15.3-15.3L58.7,22.7 M56.3,20.3l-0.1,66.6c0,7.1-5.8,12.9-12.9,12.9
					c-7.1,0-12.9-5.8-12.9-12.9c0-7.1,5.8-12.9,12.9-12.9c1.4,0,2.8,0.2,4.1,0.7L50,67c-2.1-0.7-4.3-1.1-6.6-1.1
					c-11.5,0-20.9,9.4-20.9,20.9c0,11.5,9.4,20.9,20.9,20.9c11.5,0,20.9-9.4,20.9-20.9l0.1-66.6L56.3,20.3L56.3,20.3z"/>
			</g>
		</g>
		<g>
			<g>
				<rect x="72.5" y="66" class="st7" width="8" height="8.6"/>
			</g>
			<g>
				<path class="st6" d="M80.5,70.9h-8c-0.3,0-0.6-0.3-0.6-0.6s0.3-0.6,0.6-0.6h8c0.3,0,0.6,0.3,0.6,0.6S80.8,70.9,80.5,70.9z"/>
			</g>
			<g>
				<rect x="79.3" y="66" class="st7" width="2.4" height="8.6"/>
			</g>
		</g>
		<g>
			<g>
				<path class="st7" d="M85.4,20.3c11.5,0,20.9,9.4,20.9,20.9c0,11.5-9.4,20.9-20.9,20.9c-2.3,0-4.5-0.4-6.6-1.1l2.5-7.6
					c1.3,0.4,2.7,0.7,4.1,0.7c7.1,0,12.9-5.8,12.9-12.9c0-7.1-5.8-12.9-12.9-12.9c-7.1,0-12.9,5.8-12.9,12.9l-0.1,66.6l-8,0
					l0.1-66.6C64.5,29.6,73.9,20.3,85.4,20.3z"/>
			</g>
			<g>
				<path class="st6" d="M68.5,108.3L68.5,108.3c-0.3,0-0.6-0.3-0.6-0.6l0.1-66.6c0-9.6,7.8-17.5,17.5-17.5s17.5,7.8,17.5,17.5
					c0,9.6-7.8,17.5-17.5,17.5c-1.9,0-3.7-0.3-5.5-0.9c-0.3-0.1-0.5-0.4-0.4-0.8c0.1-0.3,0.4-0.5,0.8-0.4c1.7,0.6,3.4,0.8,5.1,0.8
					c9,0,16.3-7.3,16.3-16.3s-7.3-16.3-16.3-16.3s-16.3,7.3-16.3,16.3l-0.1,66.6C69.1,108,68.8,108.3,68.5,108.3z"/>
			</g>
		</g>
		<g>
			<path class="st7" d="M85.4,22.7c10.2,0,18.5,8.3,18.5,18.5c0,10.2-8.3,18.5-18.5,18.5c-1.2,0-2.4-0.1-3.5-0.3l1-3.1
				c0.8,0.1,1.7,0.2,2.5,0.2c8.4,0,15.3-6.9,15.3-15.3c0-8.4-6.9-15.3-15.3-15.3c-8.4,0-15.3,6.9-15.3,15.3l-0.1,64.2l-3.2,0
				l0.1-64.2C66.9,30.9,75.2,22.7,85.4,22.7 M85.4,20.3c-11.5,0-20.9,9.4-20.9,20.9l-0.1,66.6l8,0l0.1-66.6
				c0-7.1,5.8-12.9,12.9-12.9c7.1,0,12.9,5.8,12.9,12.9c0,7.1-5.8,12.9-12.9,12.9c-1.4,0-2.8-0.2-4.1-0.7l-2.5,7.6
				c2.1,0.7,4.3,1.1,6.6,1.1c11.5,0,20.9-9.4,20.9-20.9C106.3,29.6,96.9,20.3,85.4,20.3L85.4,20.3z"/>
		</g>
		<g>
			<path class="st7" d="M70.7,21.5c-1.1,0.8-2.1,1.7-2.8,2.5v-2.5H70.7 M76.5,20.3h-9.9v7.2C66.6,27.5,70.1,21.4,76.5,20.3
				L76.5,20.3z"/>
		</g>
		<g>
			<rect x="69" y="69.7" class="st6" width="8" height="1.2"/>
		</g>
		<g>
			<path class="st5" d="M60.9,104v2.5h-2.8C59.2,105.7,60.2,104.8,60.9,104 M62.1,100.5c0,0-3.4,6.1-9.9,7.2h9.9V100.5L62.1,100.5z"
				/>
		</g>
	</g>
</g>
<g id="Layer_4">
	<g class="st0">
		<g class="st1">
			<g>
				<path class="st8" d="M47.9,97.5c-8.8,0-16-7.2-16-16c0-8.8,7.2-16,16-16c1.7,0,3.4,0.3,5.1,0.8L51,72.1c-1-0.3-2.1-0.5-3.1-0.5
					c-5.4,0-9.9,4.4-9.9,9.9c0,5.4,4.4,9.9,9.9,9.9s9.9-4.4,9.9-9.9l0-51l6.1,0l0,51C63.9,90.3,56.7,97.5,47.9,97.5z"/>
			</g>
			<g>
				<path class="st6" d="M47.9,94.9c-7.4,0-13.4-6-13.4-13.4s6-13.4,13.4-13.4c1.4,0,2.9,0.2,4.2,0.7c0.2,0.1,0.4,0.3,0.3,0.6
					c-0.1,0.2-0.3,0.4-0.6,0.3c-1.3-0.4-2.6-0.6-3.9-0.6c-6.9,0-12.5,5.6-12.5,12.5C35.5,88.4,41,94,47.9,94s12.5-5.6,12.5-12.5
					l0-51c0-0.3,0.2-0.5,0.5-0.5c0,0,0,0,0,0c0.3,0,0.5,0.2,0.5,0.5l0,51C61.3,88.9,55.3,94.9,47.9,94.9z"/>
			</g>
			<g>
				<path class="st8" d="M59.7,32.3l2.4,0l0,49.2c0,7.8-6.3,14.1-14.1,14.1c-7.8,0-14.1-6.3-14.1-14.1c0-7.8,6.3-14.1,14.1-14.1
					c0.9,0,1.8,0.1,2.7,0.3L49.8,70c-0.6-0.1-1.3-0.2-1.9-0.2c-6.5,0-11.7,5.2-11.7,11.7c0,6.5,5.2,11.7,11.7,11.7
					c6.5,0,11.7-5.2,11.7-11.7L59.7,32.3 M57.8,30.5l0,51c0,5.4-4.4,9.9-9.9,9.9c-5.4,0-9.9-4.4-9.9-9.9c0-5.4,4.4-9.9,9.9-9.9
					c1.1,0,2.1,0.2,3.1,0.5l1.9-5.8c-1.6-0.5-3.3-0.8-5.1-0.8c-8.8,0-16,7.2-16,16c0,8.8,7.2,16,16,16c8.8,0,16-7.2,16-16l0-51
					L57.8,30.5L57.8,30.5z"/>
			</g>
		</g>
		<g class="st1">
			<g>
				<rect x="70.2" y="65.5" class="st8" width="6.1" height="6.6"/>
			</g>
			<g>
				<path class="st6" d="M76.3,69.3h-6.1c-0.3,0-0.5-0.2-0.5-0.5s0.2-0.5,0.5-0.5h6.1c0.3,0,0.5,0.2,0.5,0.5S76.6,69.3,76.3,69.3z"
					/>
			</g>
			<g>
				<rect x="75.4" y="65.5" class="st8" width="1.8" height="6.6"/>
			</g>
		</g>
		<g class="st1">
			<g>
				<path class="st8" d="M80.1,30.5c8.8,0,16,7.2,16,16c0,8.8-7.2,16-16,16c-1.7,0-3.4-0.3-5.1-0.8l1.9-5.8c1,0.3,2.1,0.5,3.1,0.5
					c5.4,0,9.9-4.4,9.9-9.9c0-5.4-4.4-9.9-9.9-9.9s-9.9,4.4-9.9,9.9l0,51l-6.1,0l0-51C64.1,37.7,71.3,30.5,80.1,30.5z"/>
			</g>
			<g>
				<path class="st6" d="M67.1,97.9L67.1,97.9c-0.3,0-0.5-0.2-0.5-0.5l0-51c0-7.4,6-13.4,13.4-13.4s13.4,6,13.4,13.4
					c0,7.4-6,13.4-13.4,13.4c-1.4,0-2.9-0.2-4.2-0.7c-0.2-0.1-0.4-0.3-0.3-0.6c0.1-0.2,0.3-0.4,0.6-0.3c1.3,0.4,2.6,0.6,3.9,0.6
					c6.9,0,12.5-5.6,12.5-12.5S87,34,80.1,34c-6.9,0-12.5,5.6-12.5,12.5l0,51C67.6,97.7,67.4,97.9,67.1,97.9z"/>
			</g>
		</g>
		<g class="st1">
			<path class="st8" d="M80.1,32.3c7.8,0,14.1,6.3,14.1,14.1c0,7.8-6.3,14.1-14.1,14.1c-0.9,0-1.8-0.1-2.7-0.3l0.8-2.3
				c0.6,0.1,1.3,0.2,1.9,0.2c6.5,0,11.7-5.2,11.7-11.7c0-6.5-5.2-11.7-11.7-11.7c-6.5,0-11.7,5.2-11.7,11.7l0,49.2l-2.4,0l0-49.2
				C65.9,38.7,72.3,32.3,80.1,32.3 M80.1,30.5c-8.8,0-16,7.2-16,16l0,51l6.1,0l0-51c0-5.4,4.4-9.9,9.9-9.9c5.4,0,9.9,4.4,9.9,9.9
				c0,5.4-4.4,9.9-9.9,9.9c-1.1,0-2.1-0.2-3.1-0.5L75,61.7c1.6,0.5,3.3,0.8,5.1,0.8c8.8,0,16-7.2,16-16
				C96.1,37.7,88.9,30.5,80.1,30.5L80.1,30.5z"/>
		</g>
		<g class="st1">
			<path class="st8" d="M68.8,31.4c-0.9,0.6-1.6,1.3-2.2,1.9v-1.9H68.8 M73.3,30.5h-7.5V36C65.7,36,68.3,31.4,73.3,30.5L73.3,30.5z"
				/>
		</g>
		<g class="st1">
			<rect x="67.5" y="68.4" class="st6" width="6.1" height="0.9"/>
		</g>
		<g class="st1">
			<path class="st8" d="M61.4,94.6v1.9h-2.2C60,95.9,60.8,95.3,61.4,94.6 M62.3,91.9c0,0-2.6,4.6-7.5,5.5h7.5V91.9L62.3,91.9z"/>
		</g>
	</g>
	<g>
		<path class="st8" d="M77.4,35.8h24.7V42H77.4V35.8z M64,86c-1.2,1.9-2.6,3.5-4.3,4.8c-2,1.5-4.3,2.5-6.9,3.1
			c-2.7,0.6-5.6,0.8-8.7,0.8H16.4V33.3H46c7.5,0.1,12.8,2.3,15.9,6.5c1.9,2.6,2.8,5.7,2.8,9.4c0,3.8-0.9,6.8-2.8,9
			c-1,1.3-2.6,2.4-4.7,3.5c3.1,1.2,5.5,2.9,7.1,5.4c1.6,2.5,2.4,5.5,2.4,9C66.7,79.8,65.8,83.1,64,86z M111.6,74h-32
			c0.2,4.4,1.7,7.5,4.6,9.3c1.7,1.1,3.9,1.6,6.3,1.6c2.6,0,4.7-0.7,6.4-2c0.9-0.7,1.7-1.7,2.4-3H111c-0.3,2.6-1.7,5.3-4.3,7.9
			c-3.9,4.3-9.4,6.4-16.5,6.4c-5.9,0-11-1.8-15.5-5.4c-4.5-3.6-6.7-9.5-6.7-17.6c0-7.6,2-13.5,6.1-17.5c4.1-4.1,9.3-6.1,15.7-6.1
			c3.8,0,7.3,0.7,10.3,2c3.1,1.4,5.6,3.5,7.6,6.5c1.8,2.6,3,5.6,3.5,9.1C111.6,67.3,111.7,70.2,111.6,74z"/>
		<path class="st6" d="M49.8,68.7c-1.5-0.7-3.5-1-6.1-1H30.5V84h13c2.7,0,4.7-0.4,6.2-1.1c2.7-1.3,4-3.9,4-7.7
			C53.7,72.1,52.4,69.9,49.8,68.7z"/>
		<path class="st6" d="M50,56c1.7-1,2.5-2.8,2.5-5.4c0-2.9-1.1-4.8-3.3-5.7c-1.9-0.6-4.3-1-7.2-1H30.5v13.5h13
			C46.2,57.5,48.3,57,50,56z"/>
		<path class="st6" d="M89.8,57.1c-3,0-5.2,0.9-6.9,2.5c-1.6,1.7-2.6,3.9-3.1,6.8h19.8c-0.2-3-1.2-5.4-3.1-6.9
			C94.8,57.9,92.5,57.1,89.8,57.1z"/>
	</g>
	<g class="st0">
		<path class="st9" d="M109.8,40.9c-1.1-4.1-4.3-7.4-8.4-8.5c-7.4-2-37.3-2-37.3-2s-29.9,0-37.3,2c-4.1,1.1-7.3,4.4-8.4,8.5
			c-2,7.5-2,23.1-2,23.1s0,15.6,2,23.1c1.1,4.1,4.3,7.4,8.4,8.5c7.4,2,37.3,2,37.3,2s29.9,0,37.3-2c4.1-1.1,7.3-4.4,8.4-8.5
			c2-7.5,2-23.1,2-23.1S111.7,48.4,109.8,40.9z"/>
		<polygon id="PLay" class="st10" points="54.2,78.2 54.2,49.8 79.2,64 		"/>
	</g>
	<circle class="st11" cx="64" cy="64" r="62.5"/>
</g>
</svg>
